<svg width="20" height="20" fill="none" xmlns="http://www.w3.org/2000/svg"><g clip-path="url(#a)"><path d="M19.392 7.849a13.22 13.22 0 0 0-2.809-3.257l2.334-2.334a.833.833 0 0 0-1.179-1.178l-2.537 2.54A10.045 10.045 0 0 0 10 2.213c-5.16 0-8.1 3.532-9.393 5.637a4.09 4.09 0 0 0 0 4.302 13.222 13.222 0 0 0 2.81 3.257l-2.334 2.333a.833.833 0 1 0 1.178 1.179l2.544-2.544A10.044 10.044 0 0 0 10 17.788c5.159 0 8.099-3.531 9.392-5.636a4.09 4.09 0 0 0 0-4.302Zm-17.365 3.43a2.432 2.432 0 0 1 0-2.557C3.14 6.917 5.651 3.879 10 3.879a8.417 8.417 0 0 1 3.972.97l-1.678 1.678a4.16 4.16 0 0 0-5.767 5.767l-1.925 1.925a11.435 11.435 0 0 1-2.575-2.94ZM12.5 9.998a2.5 2.5 0 0 1-2.5 2.5 2.458 2.458 0 0 1-1.071-.25l3.32-3.32c.164.334.25.7.25 1.07Zm-5 0A2.5 2.5 0 0 1 10 7.5a2.46 2.46 0 0 1 1.07.25l-3.32 3.322A2.46 2.46 0 0 1 7.5 10Zm10.472 1.28C16.861 13.082 14.348 16.12 10 16.12a8.417 8.417 0 0 1-3.972-.971l1.678-1.678a4.16 4.16 0 0 0 5.766-5.766l1.925-1.925c1.021.825 1.892 1.82 2.575 2.94a2.432 2.432 0 0 1 0 2.557Z" fill="#374957"/></g><defs><clipPath id="a"><path fill="#fff" d="M0 0h20v20H0z"/></clipPath></defs></svg>