<svg width="22" height="22" fill="none" xmlns="http://www.w3.org/2000/svg"><g clip-path="url(#a)" fill="#000"><path d="M1.833 16.042h2.292c1.013 0 1.833.82 1.833 1.833v2.292c0 1.012-.82 1.833-1.833 1.833H1.833A1.833 1.833 0 0 1 0 20.167v-2.292c0-1.012.82-1.833 1.833-1.833ZM21.192 16.355a1.822 1.822 0 0 0-1.025-.313h-2.292c-1.012 0-1.833.82-1.833 1.833v2.292c0 1.012.82 1.833 1.833 1.833h2.292C21.179 22 22 21.18 22 20.167v-2.292c0-.61-.303-1.18-.808-1.52ZM1.833 8.02h2.292c1.013 0 1.833.822 1.833 1.834v2.292c0 1.012-.82 1.833-1.833 1.833H1.833A1.833 1.833 0 0 1 0 12.146V9.854c0-1.012.82-1.833 1.833-1.833ZM21.192 8.334a1.822 1.822 0 0 0-1.025-.313h-2.292c-1.012 0-1.833.82-1.833 1.833v2.292c0 1.012.82 1.833 1.833 1.833h2.292c1.012 0 1.833-.82 1.833-1.833V9.854c0-.61-.303-1.179-.808-1.52ZM1.833 0h2.292c1.013 0 1.833.82 1.833 1.833v2.292c0 1.013-.82 1.833-1.833 1.833H1.833A1.833 1.833 0 0 1 0 4.125V1.833C0 .821.82 0 1.833 0ZM13.17 16.355a1.822 1.822 0 0 0-1.024-.313H9.854c-1.012 0-1.833.82-1.833 1.833v2.292c0 1.012.82 1.833 1.833 1.833h2.292c1.012 0 1.833-.82 1.833-1.833v-2.292c0-.61-.303-1.18-.808-1.52ZM13.17 8.334a1.822 1.822 0 0 0-1.024-.313H9.854c-1.012 0-1.833.82-1.833 1.833v2.292c0 1.012.82 1.833 1.833 1.833h2.292c1.012 0 1.833-.82 1.833-1.833V9.854c0-.61-.303-1.179-.808-1.52ZM13.17.313A1.822 1.822 0 0 0 12.147 0H9.854C8.842 0 8.021.82 8.021 1.833v2.292c0 1.012.82 1.833 1.833 1.833h2.292c1.012 0 1.833-.82 1.833-1.833V1.833c0-.61-.303-1.179-.808-1.52ZM21.687.808A1.833 1.833 0 0 0 20.167 0h-2.292c-1.012 0-1.833.82-1.833 1.833v2.292c0 1.013.82 1.833 1.833 1.833h2.292c1.012 0 1.833-.82 1.833-1.833V1.833c0-.365-.108-.722-.313-1.024Z"/></g><defs><clipPath id="a"><path fill="#fff" d="M0 0h22v22H0z"/></clipPath></defs></svg>