<svg width="43" height="40" viewBox="0 0 43 40" fill="none" xmlns="http://www.w3.org/2000/svg">
<path fill-rule="evenodd" clip-rule="evenodd" d="M21.5218 9.28616L19.5743 7.47449C15.726 3.89469 9.48671 3.89469 5.63842 7.47449C1.79012 11.0543 1.79012 16.8583 5.63842 20.4382L21.4747 35.1695L21.4779 35.1665L21.525 35.2103L37.3612 20.479C41.2095 16.8992 41.2095 11.0952 37.3612 7.51539C33.5131 3.93558 27.2738 3.93558 23.4255 7.51539L21.5218 9.28616ZM21.4779 30.4525L30.3219 22.2253L32.9213 19.8903L32.924 19.8927L34.8274 18.122C37.2765 15.8439 37.2765 12.1505 34.8274 9.87241C32.3786 7.59436 28.4081 7.59436 25.9592 9.87241L21.5238 13.9984L21.5107 13.9863L21.5089 13.9881L17.0405 9.83153C14.5916 7.55346 10.6211 7.55346 8.17222 9.83153C5.72329 12.1096 5.72329 15.803 8.17222 18.0812L12.722 22.3135L12.7252 22.3105L21.4779 30.4525Z" fill="white"/>
</svg>
