<svg width="20" height="18" viewBox="0 0 20 18" fill="none" xmlns="http://www.w3.org/2000/svg">
<g clip-path="url(#clip0_146_89)">
<path d="M14.5835 0.687866C13.6451 0.701002 12.7272 0.936756 11.9224 1.37132C11.1177 1.80588 10.4546 2.42387 10.0001 3.16287C9.54566 2.42387 8.88257 1.80588 8.07783 1.37132C7.27308 0.936756 6.35517 0.701002 5.41679 0.687866C3.92091 0.746359 2.51155 1.33531 1.49661 2.32604C0.481678 3.31677 -0.0563308 4.62876 0.000128003 5.97537C0.000128003 11.0566 9.13013 16.9254 9.51846 17.1744L10.0001 17.4811L10.4818 17.1744C10.8701 16.9269 20.0001 11.0566 20.0001 5.97537C20.0566 4.62876 19.5186 3.31677 18.5036 2.32604C17.4887 1.33531 16.0793 0.746359 14.5835 0.687866V0.687866Z" fill="black"/>
</g>
<defs>
<clipPath id="clip0_146_89">
<rect width="20" height="18" fill="white"/>
</clipPath>
</defs>
</svg>
