<svg width="22" height="25" fill="none" xmlns="http://www.w3.org/2000/svg"><g clip-path="url(#a)" fill="#000"><path d="M6.417 6.171h14.666a.87.87 0 0 0 .649-.301c.171-.193.268-.455.268-.727 0-.273-.097-.535-.268-.728a.87.87 0 0 0-.649-.3H6.417a.87.87 0 0 0-.649.3 1.095 1.095 0 0 0-.268.728c0 .272.097.534.268.727a.87.87 0 0 0 .649.301ZM21.083 11.313H6.417a.87.87 0 0 0-.649.3 1.096 1.096 0 0 0-.268.728c0 .273.097.535.268.727a.87.87 0 0 0 .649.302h14.666a.87.87 0 0 0 .649-.302c.171-.192.268-.454.268-.727 0-.273-.097-.534-.268-.727a.87.87 0 0 0-.649-.301ZM21.083 18.512H6.417a.87.87 0 0 0-.649.301 1.096 1.096 0 0 0-.268.728c0 .272.097.534.268.727a.87.87 0 0 0 .649.301h14.666a.87.87 0 0 0 .649-.301c.171-.193.268-.455.268-.727 0-.273-.097-.535-.268-.728a.87.87 0 0 0-.649-.3ZM1.833 7.2c1.013 0 1.834-.922 1.834-2.058 0-1.136-.821-2.057-1.834-2.057C.821 3.085 0 4.006 0 5.142S.82 7.2 1.833 7.2ZM1.833 14.399c1.013 0 1.834-.921 1.834-2.057s-.821-2.057-1.834-2.057c-1.012 0-1.833.92-1.833 2.057 0 1.136.82 2.057 1.833 2.057ZM1.833 21.597c1.013 0 1.834-.92 1.834-2.057 0-1.136-.821-2.057-1.834-2.057C.821 17.483 0 18.404 0 19.54s.82 2.057 1.833 2.057Z"/></g><defs><clipPath id="a"><path fill="#fff" d="M0 0h22v24.683H0z"/></clipPath></defs></svg>