<svg width="80" height="30" viewBox="0 0 80 30" fill="none" xmlns="http://www.w3.org/2000/svg">
<path d="M0.78125 24C0.8125 23.6458 0.90625 23.3073 1.0625 22.9844C1.22917 22.651 1.43229 22.3646 1.67188 22.125C1.92188 21.8854 2.20312 21.6927 2.51562 21.5469C2.82812 21.401 3.16146 21.3281 3.51562 21.3281H4.17188V4.28125C4.17188 3.72917 4.25 3.21354 4.40625 2.73438C4.5625 2.24479 4.77083 1.82292 5.03125 1.46875C5.30208 1.10417 5.61458 0.822917 5.96875 0.625C6.33333 0.416667 6.71875 0.3125 7.125 0.3125H12.125V2.79688H7.89062V17.5C7.89062 18.0417 7.8125 18.5365 7.65625 18.9844C7.51042 19.4323 7.32292 19.8229 7.09375 20.1562C6.875 20.4896 6.63021 20.7604 6.35938 20.9688C6.08854 21.1667 5.83333 21.2865 5.59375 21.3281H14.75V17.8906H18.0469V21.3438C18.0469 21.7188 17.9688 22.0677 17.8125 22.3906C17.6562 22.7135 17.4479 22.9948 17.1875 23.2344C16.9375 23.474 16.6458 23.6615 16.3125 23.7969C15.9896 23.9323 15.6562 24 15.3125 24H0.78125ZM21.7812 4.28125C21.7812 3.72917 21.8594 3.21354 22.0156 2.73438C22.1719 2.24479 22.3802 1.82292 22.6406 1.46875C22.9115 1.10417 23.224 0.822917 23.5781 0.625C23.9323 0.416667 24.3125 0.3125 24.7188 0.3125H33.7812C34.1875 0.3125 34.5729 0.416667 34.9375 0.625C35.3021 0.822917 35.6146 1.10417 35.875 1.46875C36.1458 1.82292 36.3594 2.24479 36.5156 2.73438C36.6719 3.21354 36.75 3.72917 36.75 4.28125V20.0625C36.75 20.6042 36.6719 21.1146 36.5156 21.5938C36.3594 22.0729 36.1458 22.4896 35.875 22.8438C35.6042 23.1979 35.2865 23.4792 34.9219 23.6875C34.5677 23.8958 34.1875 24 33.7812 24H24.7188C24.3125 24 23.9323 23.8958 23.5781 23.6875C23.224 23.4792 22.9115 23.1979 22.6406 22.8438C22.3802 22.4896 22.1719 22.0729 22.0156 21.5938C21.8594 21.1146 21.7812 20.6042 21.7812 20.0625V4.28125ZM33.0312 21.3281V2.95312H25.5156V21.3281H33.0312ZM43 4.29688C43 3.74479 43.0781 3.22917 43.2344 2.75C43.3906 2.26042 43.599 1.83854 43.8594 1.48438C44.1302 1.11979 44.4427 0.838542 44.7969 0.640625C45.151 0.432292 45.5312 0.328125 45.9375 0.328125H58.4375V2.96875H46.7344V21.3125H54.7656V10.2031H58.4688L58.4375 25.8281C58.4375 26.3594 58.3594 26.8594 58.2031 27.3281C58.0573 27.8073 57.8542 28.224 57.5938 28.5781C57.3333 28.9427 57.026 29.2292 56.6719 29.4375C56.3177 29.6458 55.9427 29.75 55.5469 29.75H54.7656V24H45.9375C45.5312 24 45.151 23.8958 44.7969 23.6875C44.4427 23.4792 44.1302 23.1979 43.8594 22.8438C43.599 22.4896 43.3906 22.0729 43.2344 21.5938C43.0781 21.1146 43 20.6042 43 20.0625V4.29688ZM64.0625 4.28125C64.0625 3.72917 64.1406 3.21354 64.2969 2.73438C64.4531 2.24479 64.6615 1.82292 64.9219 1.46875C65.1927 1.10417 65.5052 0.822917 65.8594 0.625C66.2135 0.416667 66.5938 0.3125 67 0.3125H76.0625C76.4688 0.3125 76.8542 0.416667 77.2188 0.625C77.5833 0.822917 77.8958 1.10417 78.1562 1.46875C78.4271 1.82292 78.6406 2.24479 78.7969 2.73438C78.9531 3.21354 79.0312 3.72917 79.0312 4.28125V20.0625C79.0312 20.6042 78.9531 21.1146 78.7969 21.5938C78.6406 22.0729 78.4271 22.4896 78.1562 22.8438C77.8854 23.1979 77.5677 23.4792 77.2031 23.6875C76.849 23.8958 76.4688 24 76.0625 24H67C66.5938 24 66.2135 23.8958 65.8594 23.6875C65.5052 23.4792 65.1927 23.1979 64.9219 22.8438C64.6615 22.4896 64.4531 22.0729 64.2969 21.5938C64.1406 21.1146 64.0625 20.6042 64.0625 20.0625V4.28125ZM75.3125 21.3281V2.95312H67.7969V21.3281H75.3125Z" fill="white"/>
</svg>
