<svg width="36" height="25" viewBox="0 0 36 25" fill="none" xmlns="http://www.w3.org/2000/svg">
<g clip-path="url(#clip0_192_111)">
<path d="M28.5 1.0415H7.5C5.51161 1.04316 3.60534 1.59242 2.19933 2.56882C0.793323 3.54521 0.00238179 4.86901 0 6.24984L0 14.5832C0.00238179 15.964 0.793323 17.2878 2.19933 18.2642C3.60534 19.2406 5.51161 19.7898 7.5 19.7915H16.5V21.8748H10.5C10.1022 21.8748 9.72064 21.9846 9.43934 22.1799C9.15804 22.3753 9 22.6402 9 22.9165C9 23.1928 9.15804 23.4577 9.43934 23.6531C9.72064 23.8484 10.1022 23.9582 10.5 23.9582H25.5C25.8978 23.9582 26.2794 23.8484 26.5607 23.6531C26.842 23.4577 27 23.1928 27 22.9165C27 22.6402 26.842 22.3753 26.5607 22.1799C26.2794 21.9846 25.8978 21.8748 25.5 21.8748H19.5V19.7915H28.5C30.4884 19.7898 32.3947 19.2406 33.8007 18.2642C35.2067 17.2878 35.9976 15.964 36 14.5832V6.24984C35.9976 4.86901 35.2067 3.54521 33.8007 2.56882C32.3947 1.59242 30.4884 1.04316 28.5 1.0415V1.0415ZM7.5 3.12484H28.5C29.6935 3.12484 30.8381 3.45408 31.682 4.04013C32.5259 4.62618 33 5.42104 33 6.24984V13.5415H3V6.24984C3 5.42104 3.47411 4.62618 4.31802 4.04013C5.16193 3.45408 6.30653 3.12484 7.5 3.12484V3.12484ZM28.5 17.7082H7.5C6.57261 17.7055 5.66906 17.5039 4.91295 17.131C4.15685 16.7581 3.58512 16.232 3.276 15.6248H32.724C32.4149 16.232 31.8432 16.7581 31.087 17.131C30.3309 17.5039 29.4274 17.7055 28.5 17.7082Z" fill="white"/>
</g>
<g clip-path="url(#clip1_192_111)">
<path d="M18.0001 7.3335C17.7364 7.3335 17.4786 7.40192 17.2593 7.53011C17.0401 7.65831 16.8692 7.84052 16.7682 8.0537C16.6673 8.26688 16.6409 8.50146 16.6924 8.72777C16.7438 8.95408 16.8708 9.16196 17.0573 9.32512C17.2437 9.48828 17.4813 9.5994 17.74 9.64441C17.9986 9.68943 18.2667 9.66632 18.5103 9.57802C18.754 9.48972 18.9622 9.34019 19.1087 9.14833C19.2552 8.95647 19.3334 8.73091 19.3334 8.50016C19.3334 8.19074 19.1929 7.894 18.9429 7.6752C18.6928 7.45641 18.3537 7.3335 18.0001 7.3335V7.3335ZM18.0001 9.0835C17.8682 9.0835 17.7393 9.04928 17.6297 8.98519C17.5201 8.92109 17.4346 8.82999 17.3842 8.72339C17.3337 8.6168 17.3205 8.49952 17.3462 8.38636C17.3719 8.2732 17.4354 8.16926 17.5287 8.08768C17.6219 8.0061 17.7407 7.95055 17.87 7.92804C17.9993 7.90553 18.1334 7.91708 18.2552 7.96123C18.377 8.00538 18.4811 8.08015 18.5544 8.17608C18.6276 8.27201 18.6667 8.38479 18.6667 8.50016C18.6667 8.65487 18.5965 8.80325 18.4715 8.91264C18.3465 9.02204 18.1769 9.0835 18.0001 9.0835Z" fill="#F5F7FA"/>
<path d="M21.098 9.05417L20.95 8.9795C21.0166 8.6623 21.0166 8.33712 20.95 8.01992L21.098 7.94525C21.2118 7.8878 21.3116 7.81129 21.3916 7.7201C21.4716 7.62891 21.5303 7.52482 21.5644 7.41378C21.5984 7.30274 21.6072 7.18691 21.5901 7.07292C21.5729 6.95893 21.5303 6.849 21.4647 6.74942C21.399 6.64983 21.3116 6.56254 21.2074 6.49252C21.1032 6.4225 20.9842 6.37113 20.8573 6.34133C20.7304 6.31154 20.598 6.30391 20.4677 6.31888C20.3375 6.33385 20.2118 6.37113 20.098 6.42858L19.9497 6.50354C19.6695 6.2941 19.3476 6.13174 19 6.02462V5.875C19 5.64294 18.8947 5.42038 18.7071 5.25628C18.5196 5.09219 18.2652 5 18 5C17.7348 5 17.4804 5.09219 17.2929 5.25628C17.1054 5.42038 17 5.64294 17 5.875V6.02462C16.6525 6.13212 16.3306 6.29488 16.0507 6.50471L15.9017 6.42917C15.6718 6.31313 15.3987 6.28175 15.1424 6.34192C14.8861 6.40209 14.6676 6.54888 14.535 6.75C14.4024 6.95112 14.3665 7.1901 14.4353 7.41436C14.5041 7.63863 14.6718 7.8298 14.9017 7.94583L15.0497 8.0205C14.9831 8.3377 14.9831 8.66288 15.0497 8.98008L14.9017 9.05475C14.6718 9.17078 14.5041 9.36196 14.4353 9.58622C14.3665 9.81048 14.4024 10.0495 14.535 10.2506C14.6676 10.4517 14.8861 10.5985 15.1424 10.6587C15.3987 10.7188 15.6718 10.6874 15.9017 10.5714L16.05 10.4965C16.3303 10.7059 16.6523 10.8683 17 10.9754V11.125C17 11.3571 17.1054 11.5796 17.2929 11.7437C17.4804 11.9078 17.7348 12 18 12C18.2652 12 18.5196 11.9078 18.7071 11.7437C18.8947 11.5796 19 11.3571 19 11.125V10.9754C19.3476 10.8679 19.6694 10.7051 19.9493 10.4953L20.0983 10.5705C20.3282 10.6866 20.6013 10.718 20.8576 10.6578C21.1139 10.5976 21.3324 10.4508 21.465 10.2497C21.5976 10.0486 21.6335 9.80961 21.5647 9.58534C21.496 9.36108 21.3282 9.16991 21.0983 9.05387L21.098 9.05417ZM20.2487 7.95283C20.3616 8.31073 20.3616 8.68869 20.2487 9.04658C20.229 9.10887 20.2335 9.17513 20.2615 9.23494C20.2895 9.29476 20.3394 9.34474 20.4033 9.37704L20.7647 9.55962C20.8413 9.5983 20.8972 9.66202 20.9201 9.73677C20.943 9.81151 20.9311 9.89116 20.8868 9.95819C20.8426 10.0252 20.7698 10.0741 20.6844 10.0942C20.599 10.1142 20.508 10.1038 20.4313 10.0651L20.0693 9.88192C20.0053 9.84946 19.9308 9.83658 19.8574 9.84529C19.7841 9.85401 19.7162 9.88382 19.6643 9.93004C19.3677 10.1951 18.9939 10.3842 18.5833 10.4769C18.5117 10.493 18.4482 10.5296 18.4029 10.5807C18.3576 10.6319 18.333 10.6948 18.333 10.7595V11.125C18.333 11.2024 18.2979 11.2765 18.2354 11.3312C18.1729 11.3859 18.0881 11.4167 17.9997 11.4167C17.9113 11.4167 17.8265 11.3859 17.764 11.3312C17.7015 11.2765 17.6663 11.2024 17.6663 11.125V10.7598C17.6664 10.6951 17.6418 10.6322 17.5965 10.581C17.5512 10.5298 17.4877 10.4933 17.416 10.4772C17.0055 10.3841 16.6318 10.1946 16.3353 9.92917C16.2835 9.88295 16.2156 9.85313 16.1423 9.84442C16.0689 9.8357 15.9944 9.84859 15.9303 9.88104L15.569 10.0639C15.5311 10.0834 15.4891 10.0961 15.4456 10.1013C15.402 10.1065 15.3577 10.1041 15.3152 10.0943C15.2727 10.0844 15.2329 10.0674 15.198 10.044C15.163 10.0206 15.1337 9.99145 15.1118 9.95814C15.0898 9.92483 15.0755 9.88804 15.0699 9.84989C15.0642 9.81175 15.0672 9.773 15.0787 9.73588C15.0903 9.69876 15.1101 9.664 15.137 9.6336C15.1639 9.6032 15.1975 9.57776 15.2357 9.55875L15.597 9.37617C15.661 9.34387 15.7109 9.29388 15.7389 9.23407C15.7669 9.17426 15.7714 9.108 15.7517 9.04571C15.6388 8.68781 15.6388 8.30985 15.7517 7.95196C15.771 7.8898 15.7663 7.82378 15.7383 7.76421C15.7102 7.70464 15.6605 7.65487 15.5967 7.62267L15.2353 7.44008C15.1587 7.40141 15.1028 7.33769 15.0799 7.26294C15.057 7.1882 15.069 7.10855 15.1132 7.04152C15.1574 6.97449 15.2302 6.92557 15.3156 6.90553C15.4011 6.88548 15.4921 6.89595 15.5687 6.93462L15.9307 7.11779C15.9945 7.15032 16.0689 7.16335 16.1422 7.15485C16.2154 7.14635 16.2834 7.1168 16.3353 7.07083C16.632 6.80581 17.0058 6.61671 17.4163 6.52396C17.4882 6.50779 17.5519 6.47109 17.5972 6.41969C17.6426 6.36828 17.667 6.3051 17.6667 6.24017V5.875C17.6667 5.79765 17.7018 5.72346 17.7643 5.66876C17.8268 5.61406 17.9116 5.58333 18 5.58333C18.0884 5.58333 18.1732 5.61406 18.2357 5.66876C18.2982 5.72346 18.3333 5.79765 18.3333 5.875V6.24017C18.3333 6.3049 18.3579 6.36781 18.4032 6.41898C18.4485 6.47015 18.512 6.50667 18.5837 6.52279C18.9944 6.61588 19.3681 6.80538 19.6647 7.07083C19.7165 7.11705 19.7844 7.14687 19.8578 7.15558C19.9311 7.1643 20.0056 7.15141 20.0697 7.11896L20.431 6.93608C20.4689 6.91663 20.5109 6.90393 20.5544 6.89872C20.598 6.89351 20.6423 6.89589 20.6848 6.90572C20.7273 6.91555 20.7672 6.93264 20.8021 6.95601C20.837 6.97937 20.8663 7.00855 20.8883 7.04186C20.9103 7.07517 20.9245 7.11196 20.9301 7.15011C20.9358 7.18825 20.9328 7.227 20.9213 7.26412C20.9098 7.30124 20.89 7.336 20.863 7.3664C20.8361 7.3968 20.8026 7.42224 20.7643 7.44125L20.403 7.62383C20.3394 7.65612 20.2897 7.70593 20.2618 7.76549C20.2339 7.82506 20.2293 7.89103 20.2487 7.95312V7.95283Z" fill="#F5F7FA"/>
</g>
<defs>
<clipPath id="clip0_192_111">
<rect width="36" height="25" fill="white"/>
</clipPath>
<clipPath id="clip1_192_111">
<rect width="8" height="7" fill="white" transform="translate(14 5)"/>
</clipPath>
</defs>
</svg>
