<svg width="16" height="16" fill="none" xmlns="http://www.w3.org/2000/svg"><g clip-path="url(#a)" fill="#fff"><path d="M8 4a2.667 2.667 0 1 0 0 5.333A2.667 2.667 0 0 0 8 4Zm0 4a1.333 1.333 0 1 1 0-2.667A1.333 1.333 0 0 1 8 8Z"/><path d="M8 16a3.515 3.515 0 0 1-2.874-1.466c-2.54-3.505-3.83-6.14-3.83-7.832a6.703 6.703 0 1 1 13.407 0c0 1.692-1.288 4.327-3.829 7.832A3.514 3.514 0 0 1 8 16ZM8 1.454a5.255 5.255 0 0 0-5.25 5.25c0 1.34 1.263 3.818 3.553 6.977a2.096 2.096 0 0 0 3.394 0c2.29-3.16 3.552-5.637 3.552-6.977A5.255 5.255 0 0 0 8 1.454Z"/></g><defs><clipPath id="a"><path fill="#fff" d="M0 0h16v16H0z"/></clipPath></defs></svg>