<svg width="20" height="18" viewBox="0 0 20 18" fill="none" xmlns="http://www.w3.org/2000/svg">
<path fill-rule="evenodd" clip-rule="evenodd" d="M10.0117 2.6606L8.97291 1.58863C6.92025 -0.529544 3.59219 -0.529544 1.53951 1.58863C-0.513171 3.70682 -0.513171 7.14108 1.53951 9.25927L9.98659 17.9758L9.98831 17.9741L10.0134 18L18.4605 9.28343C20.5132 7.16524 20.5132 3.73101 18.4605 1.61283C16.4079 -0.505353 13.0798 -0.505353 11.0271 1.61283L10.0117 2.6606ZM9.98831 15.1848L14.7057 10.3167L16.0922 8.93512L16.0936 8.9365L17.109 7.88879C18.4153 6.54085 18.4153 4.35542 17.109 3.00748C15.8027 1.65956 13.6849 1.65956 12.3786 3.00748L10.0128 5.44885L10.0058 5.44171L10.0048 5.44276L7.6214 2.98329C6.31514 1.63536 4.19729 1.63536 2.89104 2.98329C1.58478 4.33122 1.58478 6.51665 2.89104 7.86463L5.3179 10.3689L5.31962 10.3671L9.98831 15.1848Z" fill="black"/>
</svg>
