<svg width="20" height="18" viewBox="0 0 20 18" fill="none" xmlns="http://www.w3.org/2000/svg">
<g clip-path="url(#clip0_146_93)">
<path d="M14.5835 0.687866C13.6451 0.701002 12.7272 0.936756 11.9224 1.37132C11.1177 1.80588 10.4546 2.42387 10.0001 3.16287C9.54566 2.42387 8.88257 1.80588 8.07783 1.37132C7.27308 0.936756 6.35517 0.701002 5.41679 0.687866C3.92091 0.746359 2.51155 1.33531 1.49661 2.32604C0.481678 3.31677 -0.0563308 4.62876 0.000128003 5.97537C0.000128003 11.0566 9.13013 16.9254 9.51846 17.1744L10.0001 17.4811L10.4818 17.1744C10.8701 16.9269 20.0001 11.0566 20.0001 5.97537C20.0566 4.62876 19.5186 3.31677 18.5036 2.32604C17.4887 1.33531 16.0793 0.746359 14.5835 0.687866V0.687866ZM10.0001 15.6346C7.28929 13.8121 1.66679 9.33462 1.66679 5.97537C1.60983 5.0264 1.9721 4.09566 2.6746 3.38614C3.37709 2.67662 4.36282 2.24588 5.41679 2.18787C6.47077 2.24588 7.45649 2.67662 8.15899 3.38614C8.86149 4.09566 9.22376 5.0264 9.16679 5.97537H10.8335C10.7765 5.0264 11.1388 4.09566 11.8413 3.38614C12.5438 2.67662 13.5295 2.24588 14.5835 2.18787C15.6374 2.24588 16.6232 2.67662 17.3257 3.38614C18.0282 4.09566 18.3904 5.0264 18.3335 5.97537C18.3335 9.33612 12.711 13.8121 10.0001 15.6346Z" fill="black"/>
</g>
<defs>
<clipPath id="clip0_146_93">
<rect width="20" height="18" fill="white"/>
</clipPath>
</defs>
</svg>
