<svg width="18" height="18" fill="none" xmlns="http://www.w3.org/2000/svg"><g clip-path="url(#a)"><path d="M16.328 6.711a.928.928 0 0 1-.525-1.275A2.428 2.428 0 0 0 12.566 2.2a.93.93 0 0 1-1.275-.525 2.43 2.43 0 0 0-4.575 0 .929.929 0 0 1-1.275.525 2.43 2.43 0 0 0-3.24 3.238.928.928 0 0 1-.525 1.275 2.43 2.43 0 0 0 0 4.575.93.93 0 0 1 .528 1.275A2.429 2.429 0 0 0 5.438 15.8a.928.928 0 0 1 1.275.525 2.43 2.43 0 0 0 4.574 0 .928.928 0 0 1 1.275-.525 2.43 2.43 0 0 0 3.238-3.237.931.931 0 0 1 .524-1.274 2.429 2.429 0 0 0 0-4.575l.003-.003Z" fill="#000"/></g><defs><clipPath id="a"><path fill="#fff" d="M0 0h18v18H0z"/></clipPath></defs></svg>