<svg width="18" height="18" fill="none" xmlns="http://www.w3.org/2000/svg"><g clip-path="url(#a)"><path d="M17.14.861a2.72 2.72 0 0 0-3.843 0L1.099 13.059A3.726 3.726 0 0 0 0 15.71v1.54a.75.75 0 0 0 .75.75h1.54a3.724 3.724 0 0 0 2.651-1.098L17.14 4.703a2.72 2.72 0 0 0 0-3.842ZM3.88 15.841c-.422.42-.994.657-1.59.659H1.5v-.79a2.235 2.235 0 0 1 .66-1.59l9.257-9.258 1.725 1.725-9.261 9.255ZM16.08 3.643l-1.88 1.88-1.725-1.721 1.88-1.88a1.217 1.217 0 1 1 1.722 1.725l.003-.004Z" fill="#000"/></g><defs><clipPath id="a"><path fill="#fff" d="M0 0h18v18H0z"/></clipPath></defs></svg>