<svg width="30" height="30" viewBox="0 0 30 30" fill="none" xmlns="http://www.w3.org/2000/svg">
<g clip-path="url(#clip0_104_79)">
<path d="M28.75 13.7495C28.4185 13.7495 28.1006 13.6178 27.8661 13.3834C27.6317 13.1489 27.5 12.831 27.5 12.4995C27.4974 9.84813 26.443 7.30613 24.5682 5.43134C22.6934 3.55655 20.1514 2.50213 17.5 2.49948C17.1685 2.49948 16.8506 2.36779 16.6162 2.13337C16.3817 1.89895 16.25 1.581 16.25 1.24948C16.25 0.917963 16.3817 0.600021 16.6162 0.3656C16.8506 0.13118 17.1685 -0.000516482 17.5 -0.000516482C20.8141 0.00312301 23.9914 1.32125 26.3348 3.66467C28.6783 6.00809 29.9964 9.1854 30 12.4995C30 12.831 29.8683 13.1489 29.6339 13.3834C29.3995 13.6178 29.0816 13.7495 28.75 13.7495ZM25 12.4995C25 10.5104 24.2099 8.60271 22.8033 7.19618C21.3968 5.78966 19.4892 4.99948 17.5 4.99948C17.1685 4.99948 16.8506 5.13118 16.6162 5.3656C16.3817 5.60002 16.25 5.91796 16.25 6.24948C16.25 6.581 16.3817 6.89895 16.6162 7.13337C16.8506 7.36779 17.1685 7.49948 17.5 7.49948C18.8261 7.49948 20.0979 8.02627 21.0356 8.96395C21.9732 9.90163 22.5 11.1734 22.5 12.4995C22.5 12.831 22.6317 13.1489 22.8661 13.3834C23.1006 13.6178 23.4185 13.7495 23.75 13.7495C24.0816 13.7495 24.3995 13.6178 24.6339 13.3834C24.8683 13.1489 25 12.831 25 12.4995ZM27.7288 27.7045L28.8663 26.3932C29.5903 25.6669 29.9968 24.6832 29.9968 23.6576C29.9968 22.6321 29.5903 21.6483 28.8663 20.922C28.8275 20.8832 25.82 18.5695 25.82 18.5695C25.0982 17.8824 24.1394 17.4998 23.1429 17.5012C22.1464 17.5026 21.1887 17.8879 20.4688 18.577L18.0863 20.5845C16.1415 19.7796 14.3749 18.5985 12.8879 17.1089C11.4009 15.6193 10.2228 13.8507 9.42128 11.9045L11.4213 9.52948C12.1109 8.8097 12.4967 7.85183 12.4983 6.85499C12.4999 5.85815 12.1173 4.89902 11.43 4.17698C11.43 4.17698 9.11378 1.17323 9.07503 1.13448C8.36185 0.416669 7.39489 0.00826104 6.38307 -0.002498C5.37125 -0.013257 4.39582 0.374497 3.66753 1.07698L2.23003 2.32698C-6.26247 12.1795 12.025 30.3257 22.2025 29.9995C23.2303 30.0054 24.2488 29.8054 25.1979 29.4113C26.1471 29.0171 27.0076 28.4367 27.7288 27.7045V27.7045Z" fill="white"/>
</g>
<defs>
<clipPath id="clip0_104_79">
<rect width="30" height="30" fill="white"/>
</clipPath>
</defs>
</svg>
