<svg width="32" height="32" viewBox="0 0 32 32" fill="none" xmlns="http://www.w3.org/2000/svg">
<g clip-path="url(#clip0_115_89)">
<path d="M31.415 28.5939L25.2214 22.3977C29.8557 16.2047 28.5921 7.42736 22.3991 2.79307C16.206 -1.84123 7.4287 -0.577606 2.79441 5.61543C-1.83988 11.8085 -0.576264 20.5858 5.61677 25.2201C10.5915 28.9427 17.4242 28.9427 22.3991 25.2201L28.5952 31.4162C29.3739 32.1949 30.6363 32.1949 31.4149 31.4162C32.1935 30.6376 32.1935 29.3751 31.4149 28.5965L31.415 28.5939ZM14.0596 24.0242C8.55548 24.0242 4.0936 19.5623 4.0936 14.0582C4.0936 8.55414 8.55548 4.09225 14.0596 4.09225C19.5636 4.09225 24.0255 8.55414 24.0255 14.0582C24.0197 19.5598 19.5612 24.0183 14.0596 24.0242Z" fill="white"/>
</g>
<defs>
<clipPath id="clip0_115_89">
<rect width="32" height="32" fill="white"/>
</clipPath>
</defs>
</svg>
