<svg width="18" height="18" viewBox="0 0 18 18" fill="none" xmlns="http://www.w3.org/2000/svg">
<g clip-path="url(#clip0_96_83)">
<path d="M15.123 9.75H4.06425L3.3585 3.75H10.5V2.25H3.1815L3.15 1.986C3.08537 1.43895 2.82229 0.934615 2.41064 0.568578C1.99899 0.202541 1.46736 0.000234627 0.9165 0L0 0V1.5H0.9165C1.1002 1.50002 1.2775 1.56747 1.41478 1.68954C1.55206 1.81161 1.63976 1.97981 1.66125 2.16225L2.85 12.2633C2.91446 12.8104 3.17746 13.315 3.58913 13.6811C4.0008 14.0473 4.53253 14.2497 5.0835 14.25H15V12.75H5.0835C4.89968 12.75 4.72229 12.6824 4.58499 12.5602C4.4477 12.438 4.36007 12.2696 4.33875 12.087L4.2405 11.25H16.377L17.052 7.5H15.5287L15.123 9.75Z" fill="#374957"/>
<path d="M5.25012 18.0005C6.07854 18.0005 6.75012 17.3289 6.75012 16.5005C6.75012 15.6721 6.07854 15.0005 5.25012 15.0005C4.42169 15.0005 3.75012 15.6721 3.75012 16.5005C3.75012 17.3289 4.42169 18.0005 5.25012 18.0005Z" fill="#374957"/>
<path d="M12.75 18.0005C13.5784 18.0005 14.25 17.3289 14.25 16.5005C14.25 15.6721 13.5784 15.0005 12.75 15.0005C11.9216 15.0005 11.25 15.6721 11.25 16.5005C11.25 17.3289 11.9216 18.0005 12.75 18.0005Z" fill="#374957"/>
<path d="M15.7499 2.25V0H14.2499V2.25H11.9999V3.75H14.2499V6H15.7499V3.75H17.9999V2.25H15.7499Z" fill="#374957"/>
</g>
<defs>
<clipPath id="clip0_96_83">
<rect width="18" height="18" fill="white"/>
</clipPath>
</defs>
</svg>
