<svg width="45" height="41" viewBox="0 0 45 41" fill="none" xmlns="http://www.w3.org/2000/svg">
<path fill-rule="evenodd" clip-rule="evenodd" d="M10.8594 3.41666H1.875V6.83332H7.9095L13.101 28.4909H13.125V29.0417H37.5V28.6178L41.6122 12.1137L42.2452 10.25H12.4785L11.4091 5.78871L10.8594 3.41666ZM37.4754 13.6667H13.2975L16.164 25.625H34.4959L37.4754 13.6667Z" fill="white"/>
<path d="M18.75 37.5833C20.8211 37.5833 22.5 36.0537 22.5 34.1667C22.5 32.2796 20.8211 30.75 18.75 30.75C16.6789 30.75 15 32.2796 15 34.1667C15 36.0537 16.6789 37.5833 18.75 37.5833Z" fill="white"/>
<path d="M35.625 34.1667C35.625 36.0537 33.9461 37.5833 31.875 37.5833C29.8039 37.5833 28.125 36.0537 28.125 34.1667C28.125 32.2796 29.8039 30.75 31.875 30.75C33.9461 30.75 35.625 32.2796 35.625 34.1667Z" fill="white"/>
</svg>
