<svg width="18" height="18" fill="none" xmlns="http://www.w3.org/2000/svg"><g clip-path="url(#a)" fill="#374957"><path d="M5.25 18a1.5 1.5 0 1 0 0-3 1.5 1.5 0 0 0 0 3ZM12.75 18a1.5 1.5 0 1 0 0-3 1.5 1.5 0 0 0 0 3ZM17.764 1.002a.75.75 0 0 0-1.06 0l-3.87 3.873L11.67 3.66a.751.751 0 0 0-1.082 1.04l1.21 1.259a1.403 1.403 0 0 0 1.01.45h.024a1.405 1.405 0 0 0 1.001-.415l3.93-3.932a.75.75 0 0 0 0-1.06Z"/><path d="M16.425 6.762a.75.75 0 0 0-.872.605l-.096.532a2.25 2.25 0 0 1-2.214 1.851h-9.18l-.704-6H8.25a.75.75 0 0 0 0-1.5H3.181l-.031-.264A2.25 2.25 0 0 0 .917 0H.75a.75.75 0 1 0 0 1.5h.166a.75.75 0 0 1 .745.662l1.032 8.775a3.75 3.75 0 0 0 3.725 3.313h7.832a.75.75 0 1 0 0-1.5H6.418a2.25 2.25 0 0 1-2.122-1.5h8.947a3.75 3.75 0 0 0 3.69-3.085l.096-.532a.75.75 0 0 0-.604-.871Z"/></g><defs><clipPath id="a"><path fill="#fff" d="M0 0h18v18H0z"/></clipPath></defs></svg>