<svg width="43" height="40" viewBox="0 0 43 40" fill="none" xmlns="http://www.w3.org/2000/svg">
<path fill-rule="evenodd" clip-rule="evenodd" d="M28.6667 11.6667C28.6667 15.3486 25.458 18.3333 21.5 18.3333C17.542 18.3333 14.3334 15.3486 14.3334 11.6667C14.3334 7.98477 17.542 5 21.5 5C25.458 5 28.6667 7.98477 28.6667 11.6667ZM25.0834 11.6667C25.0834 13.5076 23.4791 15 21.5 15C19.521 15 17.9167 13.5076 17.9167 11.6667C17.9167 9.82572 19.521 8.33333 21.5 8.33333C23.4791 8.33333 25.0834 9.82572 25.0834 11.6667Z" fill="white"/>
<path d="M28.6667 25C28.6667 24.0795 27.8645 23.3333 26.875 23.3333H16.125C15.1355 23.3333 14.3333 24.0795 14.3333 25V35H10.75V25C10.75 22.2385 13.1565 20 16.125 20H26.875C29.8436 20 32.25 22.2385 32.25 25V35H28.6667V25Z" fill="white"/>
</svg>
